PathFileType	4	(X/Y/Z)	C:\Users\WrightLab\Desktop\Jo\P2_Trial38.trc
DataRate	CameraRate	NumFrames	NumMarkers	Units	OrigDataRate	OrigDataStartFrame	OrigNumFrames
100.00	100.00	      18	19	mm	100.00	275	      1099
Frame#	Time	Headset_Front			Headset_Back			Headset_Left			Headset_Right			Left_Shoulder			Right_Shoulder			Sternum			C7			Left Elbow			Right Elbow			Left Wrist			Right Wrist			Left ASIS			Right ASIS			S2			Left Knee			Right Knee			Left Ankle			Right Ankle			
		X1	Y1	Z1	X2	Y2	Z2	X3	Y3	Z3	X4	Y4	Z4	X5	Y5	Z5	X6	Y6	Z6	X7	Y7	Z7	X8	Y8	Z8	X9	Y9	Z9	X10	Y10	Z10	X11	Y11	Z11	X12	Y12	Z12	X13	Y13	Z13	X14	Y14	Z14	X15	Y15	Z15	X16	Y16	Z16	X17	Y17	Z17	X18	Y18	Z18	X19	Y19	Z19	

275	2.740	-245.80577	1656.34717	1515.26501				-364.91333	1531.34668	1493.91272													-241.23148	1490.30249	1729.61865																			-265.58228	1033.26929	1946.78503	-370.87299	486.90295	1775.81860				-309.68100	141.06796	1746.09534	-48.88420	162.22504	1854.15503	
276	2.750	-244.99994	1657.35388	1516.37402				-364.30923	1533.55737	1494.30469													-240.91263	1490.64148	1730.63208																			-265.17960	1033.57324	1946.22925	-370.72058	486.95892	1775.71655				-309.68518	141.05429	1746.10828	-48.56991	162.90009	1855.17188	
277	2.760	-245.01007	1658.58655	1519.06311				-363.79260	1534.64758	1495.66479													-241.00783	1491.62976	1731.72620																			-263.75110	1032.39868	1943.92798	-370.52499	486.96097	1775.54089				-309.68875	141.03523	1746.12744	-48.38662	162.81165	1855.28137	
278	2.770	-244.82260	1659.39136	1520.85461				-363.49847	1535.85327	1496.42285													-240.86296	1491.78052	1732.18762																			-263.19431	1032.55457	1942.95288	-370.17825	487.02618	1775.12195				-309.75623	140.66248	1745.94653	-48.18159	162.61458	1855.46680	
279	2.780	-244.47348	1661.07690	1521.40930				-363.03082	1537.90393	1496.81494													-240.66646	1492.05176	1732.78967																			-262.65063	1032.28345	1942.13330	-369.60974	487.32993	1774.56848				-309.82599	140.28871	1745.76538	-46.88221	162.32176	1855.53967	
280	2.790	-244.02994	1662.55188	1522.49353				-362.50128	1538.70605	1497.20642													-240.30424	1492.51733	1733.91162																			-261.65128	1031.66272	1940.10278	-368.99408	487.55640	1773.96277				-309.82971	140.27205	1745.78186	-45.42538	163.12157	1856.52136	
281	2.800	-243.30702	1664.07642	1524.69299				-362.38306	1540.53979	1498.10706													-239.70657	1493.12219	1735.82117																			-261.26340	1031.28979	1939.42090	-368.36948	487.80536	1773.36450				-309.83047	140.25710	1745.79785	-44.89240	163.22224	1856.30273	
282	2.810	-242.98442	1665.29297	1527.52124				-361.74139	1542.42261	1498.19238													-239.09993	1493.81494	1737.73132																			-260.54428	1030.95093	1937.78259	-367.80545	487.99417	1772.85303				-309.82669	140.24193	1745.81616	-44.32162	163.20464	1856.45593	
283	2.820	-242.60356	1667.00452	1528.54370				-360.90671	1543.13416	1499.64502													-238.79019	1494.19617	1738.69690																			-259.75156	1029.96936	1936.34167	-366.41360	487.14078	1774.82227				-309.34833	139.35669	1745.95337	-43.42673	163.58142	1856.43372	
284	2.830	-242.64893	1668.79028	1530.24548				-360.07547	1545.22766	1501.90564													-238.59756	1494.60962	1740.23486																			-258.82687	1029.10315	1934.63428	-365.46021	487.62482	1773.68420				-309.82510	140.23344	1745.82617	-43.16125	163.44643	1856.74646	
285	2.840	-241.56514	1670.43164	1532.26965				-359.05688	1547.11365	1501.56445													-237.89725	1495.28906	1742.48218																			-258.47043	1029.11548	1933.73767	-364.22061	488.24960	1772.12915				-309.35168	139.36407	1745.94373	-42.44117	163.76530	1856.26697	
286	2.850	-240.80093	1671.93469	1534.57629				-358.93750	1548.26587	1503.10632													-237.01303	1495.94495	1744.99231																			-257.76895	1028.35779	1932.46021	-362.87048	488.79767	1770.46680				-308.41742	138.05908	1747.80811	-41.89503	163.75571	1856.35876	
287	2.860	-240.33809	1673.75439	1535.58459				-357.55908	1549.76306	1503.49512													-236.55336	1496.11035	1746.13330																			-256.49033	1027.42969	1929.73633	-361.83545	488.51840	1767.72888				-308.41742	138.05908	1747.80811	-41.49068	163.69821	1856.04590	
288	2.870	-239.37003	1674.80054	1536.37988				-356.40314	1552.09119	1506.51367													-235.83565	1496.34656	1748.36658																			-256.39157	1026.81836	1929.33960	-360.83438	488.34332	1765.98132				-308.41742	138.05908	1747.80811	-40.95849	163.56635	1855.88086	
289	2.880	-238.21918	1676.98120	1539.72156				-354.91077	1552.76025	1505.65625													-234.87010	1497.30164	1751.45947																			-255.43475	1025.79565	1926.94421	-359.63538	488.83432	1764.18884				-308.41742	138.05908	1747.80811	-40.47842	163.72618	1855.82092	
290	2.890	-237.21976	1678.49084	1540.32385				-353.50620	1553.92981	1506.28210													-234.14525	1497.23315	1752.42004																			-254.54526	1024.58728	1924.88354	-358.38467	489.10947	1761.35535				-308.41742	138.05908	1747.80811	-39.58417	163.13335	1856.72449	
291	2.900	-236.06250	1679.78796	1541.62244				-351.59763	1555.97205	1507.95654													-233.18893	1497.32202	1755.16931																			-254.48643	1024.12769	1923.61450	-357.41962	489.23508	1758.99658				-309.79587	137.76097	1747.01575	-38.66093	163.45586	1857.16711	
292	2.910	-234.63358	1681.39221	1545.02625				-350.86890	1557.37415	1509.32019													-231.99098	1497.60962	1757.32007																			-253.70306	1022.62091	1921.44617	-356.63306	489.34869	1757.78162				-312.05087	138.74025	1745.00940	-38.22844	163.75253	1857.77905	
